#Comment line ignore any data following # character 
#Hierarchical Translation and Rotation (.htr) file 
[Header]	
#Header keywords are followed by a single value 
FileType HTR		#Single word string
DataType HTRS		#Translation followed by rotation and scale data
FileVersion 1		#integer
NumSegments 84		#integer
NumFrames 2		#integer
DataFrameRate 30		#integer, data frame rate in this file
EulerRotationOrder ZYX
CalibrationUnits mm
RotationUnits Degrees
GlobalAxisofGravity Y
BoneLengthAxis Y
ScaleFactor 1.00
[SegmentNames&Hierarchy]
#CHILD	PARENT
MASTER GLOBAL
root MASTER
chest root
L_mid_tent01 root
R_mid_tent01 root
spine01 root
Bip01_Neck chest
L_humerus chest
R_humerus chest
weapon_bone chest
Bip01_Head Bip01_Neck
eye_left_bone Bip01_Head
eye_right_bone Bip01_Head
L_forearm L_humerus
L_front_hand L_forearm
L_weapon_bone L_forearm
L_front_hand01_01 L_front_hand
L_front_hand02_01 L_front_hand
L_front_hand03_01 L_front_hand
L_front_hand01_02 L_front_hand01_01
L_front_hand02_02 L_front_hand02_01
L_front_hand03_02 L_front_hand03_01
R_forearm R_humerus
R_front_hand R_forearm
R_weapon_bone R_forearm
R_front_hand01_01 R_front_hand
R_front_hand02_01 R_front_hand
R_front_hand03_01 R_front_hand
R_front_hand01_02 R_front_hand01_01
R_front_hand02_02 R_front_hand02_01
R_front_hand03_02 R_front_hand03_01
null_rope01_connect L_mid_tent01
Rope1_Seg01 null_rope01_connect
Rope1_Seg02 Rope1_Seg01
Rope1_Seg03 Rope1_Seg02
Rope1_Seg04 Rope1_Seg03
Rope1_Seg05 Rope1_Seg04
Rope1_Seg06 Rope1_Seg05
Rope1_Seg07 Rope1_Seg06
Rope1_Seg09 Rope1_Seg07
L_mid_hand01 Rope1_Seg09
L_mid_hand02 Rope1_Seg09
L_mid_hand03 Rope1_Seg09
null_rope02_connect R_mid_tent01
Rope2_Seg01 null_rope02_connect
Rope2_Seg02 Rope2_Seg01
Rope2_Seg03 Rope2_Seg02
Rope2_Seg04 Rope2_Seg03
Rope2_Seg05 Rope2_Seg04
Rope2_Seg06 Rope2_Seg05
Rope2_Seg07 Rope2_Seg06
Rope2_Seg09 Rope2_Seg07
R_mid_hand01 Rope2_Seg09
R_mid_hand02 Rope2_Seg09
R_mid_hand03 Rope2_Seg09
spine02 spine01
spine03 spine02
pelvis spine03
null_rope03_connect pelvis
null_rope04_connect pelvis
Rope3_Seg01 null_rope03_connect
Rope3_Seg02 Rope3_Seg01
Rope3_Seg03 Rope3_Seg02
Rope3_Seg04 Rope3_Seg03
Rope3_Seg05 Rope3_Seg04
Rope3_Seg06 Rope3_Seg05
Rope3_Seg07 Rope3_Seg06
Rope3_Seg08 Rope3_Seg07
Rope3_Seg09 Rope3_Seg08
R_rear_hand01 Rope3_Seg09
R_rear_hand02 Rope3_Seg09
R_rear_hand03 Rope3_Seg09
Rope4_Seg01 null_rope04_connect
Rope4_Seg02 Rope4_Seg01
Rope4_Seg03 Rope4_Seg02
Rope4_Seg04 Rope4_Seg03
Rope4_Seg05 Rope4_Seg04
Rope4_Seg06 Rope4_Seg05
Rope4_Seg07 Rope4_Seg06
Rope4_Seg08 Rope4_Seg07
Rope4_Seg09 Rope4_Seg08
L_rear_hand01 Rope4_Seg09
L_rear_hand02 Rope4_Seg09
L_rear_hand03 Rope4_Seg09
[BasePosition]
#SegmentName Tx, Ty, Tz, Rx, Ry, Rz, BoneLength
MASTER 0.000000 0.000000 0.000000 -90.000000 0.000000 0.000000 10.000000 
root 0.000000 0.000000 0.000000 0.000000 0.000000 0.000000 10.000000 
chest 0.000000 0.000000 0.000000 0.000000 0.000000 0.000000 10.000000 
L_mid_tent01 0.000000 0.000000 0.000000 0.000000 0.000000 0.000000 10.000000 
R_mid_tent01 0.000000 0.000000 0.000000 0.000000 0.000000 0.000000 10.000000 
spine01 0.000000 0.000000 0.000000 0.000000 0.000000 0.000000 10.000000 
Bip01_Neck 0.000000 0.000000 0.000000 0.000000 0.000000 0.000000 10.000000 
L_humerus 0.000000 0.000000 0.000000 0.000000 0.000000 0.000000 10.000000 
R_humerus 0.000000 0.000000 0.000000 0.000000 0.000000 0.000000 10.000000 
weapon_bone 0.000000 0.000000 0.000000 0.000000 0.000000 0.000000 10.000000 
Bip01_Head 0.000000 0.000000 0.000000 0.000000 0.000000 0.000000 10.000000 
eye_left_bone 0.000000 0.000000 0.000000 0.000000 0.000000 0.000000 10.000000 
eye_right_bone 0.000000 0.000000 0.000000 0.000000 0.000000 0.000000 10.000000 
L_forearm 0.000000 0.000000 0.000000 0.000000 0.000000 0.000000 10.000000 
L_front_hand 0.000000 0.000000 0.000000 0.000000 0.000000 0.000000 10.000000 
L_weapon_bone 0.000000 0.000000 0.000000 0.000000 0.000000 0.000000 10.000000 
L_front_hand01_01 0.000000 0.000000 0.000000 0.000000 0.000000 0.000000 10.000000 
L_front_hand02_01 0.000000 0.000000 0.000000 0.000000 0.000000 0.000000 10.000000 
L_front_hand03_01 0.000000 0.000000 0.000000 0.000000 0.000000 0.000000 10.000000 
L_front_hand01_02 0.000000 0.000000 0.000000 0.000000 0.000000 0.000000 10.000000 
L_front_hand02_02 0.000000 0.000000 0.000000 0.000000 0.000000 0.000000 10.000000 
L_front_hand03_02 0.000000 0.000000 0.000000 0.000000 0.000000 0.000000 10.000000 
R_forearm 0.000000 0.000000 0.000000 0.000000 0.000000 0.000000 10.000000 
R_front_hand 0.000000 0.000000 0.000000 0.000000 0.000000 0.000000 10.000000 
R_weapon_bone 0.000000 0.000000 0.000000 0.000000 0.000000 0.000000 10.000000 
R_front_hand01_01 0.000000 0.000000 0.000000 0.000000 0.000000 0.000000 10.000000 
R_front_hand02_01 0.000000 0.000000 0.000000 0.000000 0.000000 0.000000 10.000000 
R_front_hand03_01 0.000000 0.000000 0.000000 0.000000 0.000000 0.000000 10.000000 
R_front_hand01_02 0.000000 0.000000 0.000000 0.000000 0.000000 0.000000 10.000000 
R_front_hand02_02 0.000000 0.000000 0.000000 0.000000 0.000000 0.000000 10.000000 
R_front_hand03_02 0.000000 0.000000 0.000000 0.000000 0.000000 0.000000 10.000000 
null_rope01_connect 0.000000 0.000000 0.000000 0.000000 0.000000 0.000000 10.000000 
Rope1_Seg01 0.000000 0.000000 0.000000 0.000000 0.000000 0.000000 10.000000 
Rope1_Seg02 0.000000 0.000000 0.000000 0.000000 0.000000 0.000000 10.000000 
Rope1_Seg03 0.000000 0.000000 0.000000 0.000000 0.000000 0.000000 10.000000 
Rope1_Seg04 0.000000 0.000000 0.000000 0.000000 0.000000 0.000000 10.000000 
Rope1_Seg05 0.000000 0.000000 0.000000 0.000000 0.000000 0.000000 10.000000 
Rope1_Seg06 0.000000 0.000000 0.000000 0.000000 0.000000 0.000000 10.000000 
Rope1_Seg07 0.000000 0.000000 0.000000 0.000000 0.000000 0.000000 10.000000 
Rope1_Seg09 0.000000 0.000000 0.000000 0.000000 0.000000 0.000000 10.000000 
L_mid_hand01 0.000000 0.000000 0.000000 0.000000 0.000000 0.000000 10.000000 
L_mid_hand02 0.000000 0.000000 0.000000 0.000000 0.000000 0.000000 10.000000 
L_mid_hand03 0.000000 0.000000 0.000000 0.000000 0.000000 0.000000 10.000000 
null_rope02_connect 0.000000 0.000000 0.000000 0.000000 0.000000 0.000000 10.000000 
Rope2_Seg01 0.000000 0.000000 0.000000 0.000000 0.000000 0.000000 10.000000 
Rope2_Seg02 0.000000 0.000000 0.000000 0.000000 0.000000 0.000000 10.000000 
Rope2_Seg03 0.000000 0.000000 0.000000 0.000000 0.000000 0.000000 10.000000 
Rope2_Seg04 0.000000 0.000000 0.000000 0.000000 0.000000 0.000000 10.000000 
Rope2_Seg05 0.000000 0.000000 0.000000 0.000000 0.000000 0.000000 10.000000 
Rope2_Seg06 0.000000 0.000000 0.000000 0.000000 0.000000 0.000000 10.000000 
Rope2_Seg07 0.000000 0.000000 0.000000 0.000000 0.000000 0.000000 10.000000 
Rope2_Seg09 0.000000 0.000000 0.000000 0.000000 0.000000 0.000000 10.000000 
R_mid_hand01 0.000000 0.000000 0.000000 0.000000 0.000000 0.000000 10.000000 
R_mid_hand02 0.000000 0.000000 0.000000 0.000000 0.000000 0.000000 10.000000 
R_mid_hand03 0.000000 0.000000 0.000000 0.000000 0.000000 0.000000 10.000000 
spine02 0.000000 0.000000 0.000000 0.000000 0.000000 0.000000 10.000000 
spine03 0.000000 0.000000 0.000000 0.000000 0.000000 0.000000 10.000000 
pelvis 0.000000 0.000000 0.000000 0.000000 0.000000 0.000000 10.000000 
null_rope03_connect 0.000000 0.000000 0.000000 0.000000 0.000000 0.000000 10.000000 
null_rope04_connect 0.000000 0.000000 0.000000 0.000000 0.000000 0.000000 10.000000 
Rope3_Seg01 0.000000 0.000000 0.000000 0.000000 0.000000 0.000000 10.000000 
Rope3_Seg02 0.000000 0.000000 0.000000 0.000000 0.000000 0.000000 10.000000 
Rope3_Seg03 0.000000 0.000000 0.000000 0.000000 0.000000 0.000000 10.000000 
Rope3_Seg04 0.000000 0.000000 0.000000 0.000000 0.000000 0.000000 10.000000 
Rope3_Seg05 0.000000 0.000000 0.000000 0.000000 0.000000 0.000000 10.000000 
Rope3_Seg06 0.000000 0.000000 0.000000 0.000000 0.000000 0.000000 10.000000 
Rope3_Seg07 0.000000 0.000000 0.000000 0.000000 0.000000 0.000000 10.000000 
Rope3_Seg08 0.000000 0.000000 0.000000 0.000000 0.000000 0.000000 10.000000 
Rope3_Seg09 0.000000 0.000000 0.000000 0.000000 0.000000 0.000000 10.000000 
R_rear_hand01 0.000000 0.000000 0.000000 0.000000 0.000000 0.000000 10.000000 
R_rear_hand02 0.000000 0.000000 0.000000 0.000000 0.000000 0.000000 10.000000 
R_rear_hand03 0.000000 0.000000 0.000000 0.000000 0.000000 0.000000 10.000000 
Rope4_Seg01 0.000000 0.000000 0.000000 0.000000 0.000000 0.000000 10.000000 
Rope4_Seg02 0.000000 0.000000 0.000000 0.000000 0.000000 0.000000 10.000000 
Rope4_Seg03 0.000000 0.000000 0.000000 0.000000 0.000000 0.000000 10.000000 
Rope4_Seg04 0.000000 0.000000 0.000000 0.000000 0.000000 0.000000 10.000000 
Rope4_Seg05 0.000000 0.000000 0.000000 0.000000 0.000000 0.000000 10.000000 
Rope4_Seg06 0.000000 0.000000 0.000000 0.000000 0.000000 0.000000 10.000000 
Rope4_Seg07 0.000000 0.000000 0.000000 0.000000 0.000000 0.000000 10.000000 
Rope4_Seg08 0.000000 0.000000 0.000000 0.000000 0.000000 0.000000 10.000000 
Rope4_Seg09 0.000000 0.000000 0.000000 0.000000 0.000000 0.000000 10.000000 
L_rear_hand01 0.000000 0.000000 0.000000 0.000000 0.000000 0.000000 10.000000 
L_rear_hand02 0.000000 0.000000 0.000000 0.000000 0.000000 0.000000 10.000000 
L_rear_hand03 0.000000 0.000000 0.000000 0.000000 0.000000 0.000000 10.000000 
#Beginning of Data. Separated by tabs
#Fr	Tx	Ty	Tz	Rx	Ry	Rz	SF
[MASTER]
16 -141.305908 2922.921387 1301.541626 0.001660 0.001660 0.001660 3202.724854
17 -137.037018 3139.955322 1288.164429 0.001660 0.001660 0.001660 3396.684326
[root]
16 10.025844 111.731262 804.705505 -95.799911 -7.458165 -89.897591 812.487122
17 0.869751 158.659958 825.588928 -96.186249 -9.234442 -89.210190 840.696594
[chest]
16 -84.512650 -34.090519 0.000000 4.711534 10.083513 145.500504 91.129311
17 -84.512650 -34.090519 0.000000 2.468426 8.240129 144.190536 91.129311
[L_mid_tent01]
16 27.298922 22.179058 -249.918701 -0.109586 18.979359 80.965538 252.381653
17 27.298910 22.179054 -249.918701 -0.136843 18.701595 81.119820 252.381653
[R_mid_tent01]
16 23.228794 24.509907 226.238495 153.450485 -28.805231 66.784492 228.744751
17 23.228794 24.509907 226.238495 149.699249 -30.547520 66.664360 228.744751
[spine01]
16 -0.361383 -0.195265 0.000000 -0.000001 -0.000007 22.052340 0.410763
17 -0.361383 -0.195265 0.000000 -0.000001 -0.000007 22.052340 0.410763
[Bip01_Neck]
16 165.484543 71.581718 0.000119 176.643677 -1.657967 43.431911 180.302734
17 165.484543 71.581718 0.000119 176.643677 -1.657966 43.431908 180.302734
[L_humerus]
16 -13.983130 -135.272980 -120.471481 157.361694 67.746651 -110.857552 181.680161
17 -13.983130 -135.272980 -120.471481 162.537201 60.456589 -105.148979 181.680161
[R_humerus]
16 -13.983309 -135.273102 125.287651 -174.870880 -38.880108 -89.427559 184.909012
17 -13.983309 -135.273102 125.287651 -175.315201 -32.719784 -88.781494 184.909012
[weapon_bone]
16 235.964890 -300.705902 0.000000 0.000000 -89.951546 -128.212341 382.234833
17 235.964890 -300.705902 0.000000 0.000000 -89.951546 -128.212341 382.234833
[Bip01_Head]
16 213.334793 186.007996 7.814636 4.962490 2.797846 -43.898743 283.146210
17 213.337387 185.996552 7.899780 4.962490 2.797846 -43.898743 283.143005
[eye_left_bone]
16 -24.626970 125.451866 -64.772606 0.000000 -90.000000 -99.840431 143.318359
17 -24.626970 125.451866 -64.772606 0.000000 -90.000000 -99.840431 143.318359
[eye_right_bone]
16 -24.626970 125.451866 64.327362 0.000000 -89.965736 80.156380 143.117676
17 -24.626970 125.451866 64.327362 0.000000 -89.972023 80.156387 143.117676
[L_forearm]
16 322.776093 0.000000 -0.000119 0.000405 -0.002312 -109.885857 322.776093
17 322.776093 0.000000 -0.000119 0.000404 -0.002312 -109.819389 322.776093
[L_front_hand]
16 241.149185 -0.042021 -3.300071 49.010834 -1.833984 -27.425117 241.171753
17 241.149185 -0.042021 -3.300071 19.714808 -1.837144 -27.423819 241.171753
[L_weapon_bone]
16 156.183838 0.000000 0.000000 0.000014 0.000007 0.000001 156.183838
17 156.183838 0.000000 0.000000 0.000014 0.000007 0.000001 156.183838
[L_front_hand01_01]
16 86.095154 20.947098 -0.655860 -0.307662 -0.512638 68.898666 88.609184
17 86.095154 20.947098 -0.655860 -0.320916 -0.506937 70.186226 88.609184
[L_front_hand02_01]
16 86.935165 -11.437475 24.513514 145.311646 -56.611832 -50.692287 91.046425
17 86.935165 -11.437475 24.513514 146.956512 -57.330299 -52.653660 91.046425
[L_front_hand03_01]
16 86.637497 -14.123976 -20.424902 -145.445206 54.832184 -52.559963 90.126129
17 86.637497 -14.123976 -20.424902 -146.987762 55.547066 -54.435081 90.126129
[L_front_hand01_02]
16 71.020905 -0.000179 0.000030 0.000300 -0.002328 -104.690079 71.020905
17 71.020905 -0.000179 0.000030 0.000294 -0.002329 -104.402451 71.020905
[L_front_hand02_02]
16 71.020927 -0.000119 0.000060 0.000300 -0.002328 -104.690079 71.020927
17 71.020927 -0.000119 0.000060 0.000294 -0.002329 -104.402451 71.020927
[L_front_hand03_02]
16 71.020905 -0.000060 0.000060 0.000300 -0.002328 -104.690079 71.020905
17 71.020905 -0.000060 0.000060 0.000294 -0.002329 -104.402451 71.020905
[R_forearm]
16 322.776428 -0.000060 0.000030 0.201683 0.066447 -108.794418 322.776428
17 322.776428 -0.000060 0.000030 0.201707 0.066372 -108.751831 322.776428
[R_front_hand]
16 238.847015 -0.006795 2.210259 -171.241623 -10.643134 -26.311672 238.857239
17 238.847015 -0.006795 2.210259 -132.962891 -10.644146 -26.312435 238.857239
[R_weapon_bone]
16 155.664093 0.002503 -0.000030 0.003487 0.001180 -90.988930 155.664078
17 155.664093 0.002503 -0.000030 0.003487 0.001180 -90.988930 155.664078
[R_front_hand01_01]
16 87.624611 14.231146 22.918642 -147.366211 -57.494862 53.245693 91.683487
17 87.624611 14.231146 22.918642 -150.820541 -58.784569 57.311836 91.683487
[R_front_hand02_01]
16 89.356956 14.367283 -19.491137 147.772614 55.873154 55.617844 92.579636
17 89.356956 14.367283 -19.491137 151.027069 57.144753 59.518578 92.579636
[R_front_hand03_01]
16 87.286232 -22.307278 -0.143439 0.124412 -0.437303 -70.732674 90.091743
17 87.286232 -22.307278 -0.143439 0.144811 -0.432555 -73.232849 90.091743
[R_front_hand01_02]
16 71.020905 0.000060 0.000119 0.002331 -0.000274 103.397835 71.020905
17 71.020905 0.000060 0.000119 0.002332 -0.000271 103.276939 71.020905
[R_front_hand02_02]
16 71.020844 -0.000030 -0.000119 0.002331 -0.000274 103.397835 71.020836
17 71.020844 -0.000030 -0.000119 0.002332 -0.000271 103.276939 71.020836
[R_front_hand03_02]
16 71.020905 0.000000 0.000030 0.002331 -0.000274 103.397835 71.020905
17 71.020905 0.000000 0.000030 0.002332 -0.000271 103.276939 71.020905
[null_rope01_connect]
16 328.732483 0.000000 -0.000238 -165.994598 -65.297928 -177.359665 328.732483
17 328.732483 0.000000 -0.000238 -165.969177 -65.365059 -175.619781 328.732483
[Rope1_Seg01]
16 0.000014 -0.000416 0.000049 -43.217648 -36.584221 -169.833313 0.000419
17 0.000012 -0.000441 0.000052 -29.609526 -34.382687 167.510391 0.000444
[Rope1_Seg02]
16 139.999863 -0.000179 0.000000 8.936174 13.377475 0.951863 139.999863
17 139.999863 -0.000179 0.000000 7.721298 8.814590 9.839899 139.999863
[Rope1_Seg03]
16 139.999924 0.000060 -0.000060 6.836701 23.395248 -3.226790 139.999924
17 139.999924 0.000060 -0.000060 13.927535 17.646822 15.218617 139.999924
[Rope1_Seg04]
16 139.999924 -0.000060 -0.000119 -0.787743 22.940134 -10.056708 139.999924
17 139.999924 -0.000060 -0.000119 11.031096 21.982309 11.457187 139.999924
[Rope1_Seg05]
16 139.999832 0.000119 -0.000060 -4.154602 26.705591 3.232605 139.999832
17 139.999832 0.000119 -0.000060 11.682808 30.037956 18.307774 139.999832
[Rope1_Seg06]
16 139.999954 0.000119 -0.000060 -13.173306 42.169464 20.663761 139.999954
17 139.999954 0.000119 -0.000060 4.287577 29.963247 14.592537 139.999954
[Rope1_Seg07]
16 139.999985 0.000060 0.000000 -8.241841 14.274154 11.379810 139.999985
17 139.999985 0.000060 0.000000 -0.913242 11.456855 4.613623 139.999985
[Rope1_Seg09]
16 121.602913 0.000119 -0.000089 -89.793175 -1.359789 0.847147 121.602913
17 121.602913 0.000119 -0.000089 -89.793175 -1.359789 0.847147 121.602913
[L_mid_hand01]
16 103.859421 1.038730 8.195221 112.678772 -49.980732 -18.276018 104.187431
17 103.859421 1.038730 8.195221 114.394852 -53.111439 -20.468830 104.187431
[L_mid_hand02]
16 105.572853 -4.139662 -10.864139 -152.571289 36.560631 -48.342625 106.211075
17 105.572853 -4.139662 -10.864139 -154.909470 38.072205 -52.197872 106.211075
[L_mid_hand03]
16 104.641464 17.579376 -3.913581 -11.926217 14.597142 53.941059 106.179977
17 104.641464 17.579376 -3.913581 -11.031654 15.280054 57.403896 106.179977
[null_rope02_connect]
16 328.732849 0.000179 -0.000119 -96.057587 53.230507 48.215542 328.732849
17 328.732849 0.000179 -0.000119 -91.559158 48.776398 49.668491 328.732849
[Rope2_Seg01]
16 0.000050 0.000104 0.000000 134.100098 -61.281406 15.087622 0.000115
17 0.000051 0.000101 0.000000 132.459076 -60.901676 16.551722 0.000113
[Rope2_Seg02]
16 139.999741 -0.000060 -0.000119 -5.183373 -3.394045 -8.217588 139.999756
17 139.999741 -0.000060 -0.000119 -3.843699 -6.162251 -3.885577 139.999756
[Rope2_Seg03]
16 140.000107 0.000030 0.000000 -15.872651 -17.049850 -29.778250 140.000107
17 140.000107 0.000030 0.000000 -21.152332 -27.604385 -10.361337 140.000107
[Rope2_Seg04]
16 139.999802 0.000000 -0.000060 -15.713424 20.770329 -59.901031 139.999802
17 139.999802 0.000000 -0.000060 -31.874348 -3.933626 -75.671951 139.999802
[Rope2_Seg05]
16 139.999985 -0.000060 0.000119 -2.636361 21.287405 -8.438127 139.999985
17 139.999985 -0.000060 0.000119 -7.085001 37.897980 -15.430328 139.999985
[Rope2_Seg06]
16 139.999893 -0.000030 -0.000119 0.958281 4.547097 -3.217672 139.999893
17 139.999893 -0.000030 -0.000119 0.332411 5.151976 -2.884808 139.999893
[Rope2_Seg07]
16 139.999893 0.000060 -0.000060 0.631518 2.271450 -1.667767 139.999893
17 139.999893 0.000060 -0.000060 0.220465 2.398348 -1.364019 139.999893
[Rope2_Seg09]
16 121.338966 0.000089 -0.000060 33.793236 -1.359788 -0.847141 121.338966
17 121.338966 0.000089 -0.000060 33.793236 -1.359788 -0.847141 121.338966
[R_mid_hand01]
16 104.680779 11.144459 -10.335981 -37.204079 31.906813 37.576260 105.778534
17 104.680779 11.144459 -10.335981 -36.871494 32.306065 38.202835 105.778534
[R_mid_hand02]
16 104.070427 2.443552 8.231699 70.367462 -42.427391 14.067809 104.424065
17 104.070427 2.443552 8.231699 70.157997 -43.050724 14.375076 104.424065
[R_mid_hand03]
16 106.028137 -11.221827 -5.996406 -169.893616 12.226661 -47.211018 106.788818
17 106.028137 -11.221827 -5.996406 -170.040359 12.343988 -47.884888 106.788818
[spine02]
16 129.756927 0.001550 0.000119 0.540809 -4.023483 -15.537113 129.756927
17 129.756927 0.001550 0.000119 0.541249 -4.023425 -15.549616 129.756927
[spine03]
16 78.613983 0.081635 -4.899009 2.006636 3.774919 18.112587 78.766518
17 78.613983 0.081635 -4.899009 2.004730 3.775326 18.104177 78.766518
[pelvis]
16 169.435242 0.051022 0.000000 -0.070549 -0.177649 17.408245 169.435257
17 169.435242 0.051022 0.000000 -0.070538 -0.177654 17.400740 169.435257
[null_rope03_connect]
16 -1.257226 -2.466202 137.391083 -171.885544 -85.528450 -132.665756 137.418976
17 -1.257226 -2.466202 137.391083 -178.242661 -85.208534 -124.507080 137.418976
[null_rope04_connect]
16 -1.259640 -2.480268 -137.844437 -171.885544 -85.528450 -132.665756 137.872513
17 -1.259640 -2.480268 -137.844437 -178.242661 -85.208534 -124.507080 137.872513
[Rope3_Seg01]
16 0.000052 -0.000221 0.000000 8.884861 -43.631954 -59.269474 0.000227
17 0.000050 -0.000233 0.000000 8.621094 -54.604214 -58.793888 0.000238
[Rope3_Seg02]
16 139.999924 -0.000119 0.000060 -0.800633 1.197682 14.773562 139.999924
17 139.999924 -0.000119 0.000060 -0.184252 -1.729917 9.661074 139.999924
[Rope3_Seg03]
16 139.999924 -0.000119 0.000119 -23.436565 2.323239 50.055096 139.999924
17 139.999924 -0.000119 0.000119 -5.107121 -4.280609 24.500822 139.999924
[Rope3_Seg04]
16 139.999924 0.000119 0.000000 -71.651932 -14.200606 40.713848 139.999924
17 139.999924 0.000119 0.000000 -34.274166 -10.401235 46.096535 139.999924
[Rope3_Seg05]
16 139.999924 -0.000238 0.000060 -17.335535 -15.404755 3.040339 139.999924
17 139.999924 -0.000238 0.000060 -29.148235 -17.598948 18.783724 139.999924
[Rope3_Seg06]
16 139.999893 -0.000119 -0.000060 -7.311525 -11.098929 -1.039658 139.999893
17 139.999893 -0.000119 -0.000060 -14.841783 -16.392769 5.693563 139.999893
[Rope3_Seg07]
16 139.999771 0.000060 -0.000119 -2.722410 -6.694587 -1.801562 139.999771
17 139.999771 0.000060 -0.000119 -6.213530 -10.944700 0.950787 139.999771
[Rope3_Seg08]
16 139.999985 -0.000060 0.000000 -0.972379 -3.788256 -1.223140 139.999985
17 139.999985 -0.000060 0.000000 -2.225615 -5.815501 -0.123018 139.999985
[Rope3_Seg09]
16 90.185997 -0.000179 -0.000060 89.793228 -1.359877 -0.847183 90.185997
17 90.185997 -0.000179 -0.000060 89.793228 -1.359877 -0.847183 90.185997
[R_rear_hand01]
16 103.366196 -6.073594 -10.757982 -164.972809 19.789423 -40.983833 104.101845
17 103.366196 -6.073594 -10.757982 -165.575058 20.224255 -42.745789 104.101845
[R_rear_hand02]
16 100.509819 12.039542 -7.992327 -30.544968 25.097782 38.729172 101.543350
17 100.509819 12.039542 -7.992327 -29.842968 25.960022 40.362484 101.543350
[R_rear_hand03]
16 101.539970 5.215704 5.435467 82.376854 -41.657890 8.948382 101.819031
17 101.539970 5.215704 5.435467 82.169113 -43.351929 9.256878 101.819031
[Rope4_Seg01]
16 -0.000016 -0.000052 -0.000153 -42.406937 -32.667164 -178.202713 0.000162
17 -0.000016 -0.000050 -0.000153 -53.266254 -31.002089 -169.239944 0.000161
[Rope4_Seg02]
16 139.999985 0.000060 0.000119 -4.056856 6.817354 7.996547 139.999985
17 139.999985 0.000060 0.000119 -6.902215 3.518336 10.193583 139.999985
[Rope4_Seg03]
16 139.999924 0.000000 -0.000238 -12.169071 9.823724 12.943870 139.999924
17 139.999924 0.000000 -0.000238 -16.191795 3.758905 16.164534 139.999924
[Rope4_Seg04]
16 139.999985 0.000000 0.000119 -34.230053 11.127545 14.990227 139.999985
17 139.999985 0.000000 0.000119 -29.239931 2.839513 20.107466 139.999985
[Rope4_Seg05]
16 139.999802 -0.000060 -0.000119 -63.318390 -13.786991 26.851700 139.999802
17 139.999802 -0.000060 -0.000119 -28.518929 -19.946966 16.915873 139.999802
[Rope4_Seg06]
16 139.999924 0.000000 0.000060 -4.347776 -22.466726 -3.762630 139.999924
17 139.999924 0.000000 0.000060 -4.020123 -17.009012 -0.532800 139.999924
[Rope4_Seg07]
16 139.999802 0.000000 0.000000 -1.089343 -8.525696 -1.266185 139.999802
17 139.999802 0.000000 0.000000 -1.234048 -7.062768 0.271085 139.999802
[Rope4_Seg08]
16 139.999924 0.000000 0.000119 -1.907780 -4.249992 -0.694763 139.999924
17 139.999924 0.000000 0.000119 -1.995989 -3.692131 0.105594 139.999924
[Rope4_Seg09]
16 90.185791 0.000060 0.000060 -135.617828 2.228885 0.850567 90.185791
17 90.185791 0.000060 0.000060 -135.617828 2.228885 0.850567 90.185791
[L_rear_hand01]
16 101.696655 -8.392275 -7.654577 -24.658649 -30.887175 128.783096 102.329041
17 101.696655 -8.392275 -7.654577 -22.991795 -32.088032 125.593971 102.329041
[L_rear_hand02]
16 102.726799 -1.568258 5.773216 80.302361 53.966496 168.267441 102.900848
17 102.726799 -1.568258 5.773216 79.542931 56.888847 167.348526 102.900848
[L_rear_hand03]
16 104.552910 9.721220 -10.420293 -169.691223 -22.530382 -125.995598 105.519653
17 104.552910 9.721220 -10.420293 -170.919907 -23.031248 -122.815849 105.519653
